<svg width="52" height="34" viewBox="0 0 52 34" fill="none" xmlns="http://www.w3.org/2000/svg">
<path fill-rule="evenodd" clip-rule="evenodd" d="M36.4041 30.6634C41.0914 27.6316 43.605 23.8014 44.7241 19.8174H39.0916C38.5068 21.1844 37.6337 22.4696 36.4041 23.6336C31.3828 28.3871 24.42 29.5922 16.9884 25.3073C14.804 23.905 13.4676 21.9922 12.7457 19.8174H7.23071C7.30573 20.2353 7.38923 20.6591 7.48144 21.0894C9.28911 29.5252 23.2148 38.5636 36.4041 30.6634ZM41.4254 0C42.5284 1.83837 43.6763 4.36026 44.4642 7.2307H38.6987C37.8563 4.67342 36.7367 2.19976 35.6677 0H41.4254ZM16.4528 0C15.4068 1.86104 14.2434 4.41749 13.3756 7.2307H7.63162C8.26755 4.81379 9.20578 2.45646 10.3603 0H16.4528ZM42.028 5.69071C42.028 6.09744 41.6983 6.42717 41.2915 6.42717C40.8848 6.42717 40.5551 6.09744 40.5551 5.69071C40.5551 5.28397 40.8848 4.95425 41.2915 4.95425C41.6983 4.95425 42.028 5.28397 42.028 5.69071ZM41.4924 22.5623C41.4924 22.969 41.1627 23.2987 40.7559 23.2987C40.3492 23.2987 40.0195 22.969 40.0195 22.5623C40.0195 22.1555 40.3492 21.8258 40.7559 21.8258C41.1627 21.8258 41.4924 22.1555 41.4924 22.5623ZM35.8016 29.0565C36.2083 29.0565 36.5381 28.7268 36.5381 28.32C36.5381 27.9133 36.2083 27.5836 35.8016 27.5836C35.3949 27.5836 35.0651 27.9133 35.0651 28.32C35.0651 28.7268 35.3949 29.0565 35.8016 29.0565ZM16.4529 28.32C16.4529 28.7268 16.1231 29.0565 15.7164 29.0565C15.3097 29.0565 14.98 28.7268 14.98 28.32C14.98 27.9133 15.3097 27.5836 15.7164 27.5836C16.1231 27.5836 16.4529 27.9133 16.4529 28.32ZM10.896 23.2987C11.3027 23.2987 11.6324 22.969 11.6324 22.5623C11.6324 22.1555 11.3027 21.8258 10.896 21.8258C10.4892 21.8258 10.1595 22.1555 10.1595 22.5623C10.1595 22.969 10.4892 23.2987 10.896 23.2987ZM11.6324 5.69071C11.6324 6.09744 11.3027 6.42717 10.896 6.42717C10.4892 6.42717 10.1595 6.09744 10.1595 5.69071C10.1595 5.28397 10.4892 4.95425 10.896 4.95425C11.3027 4.95425 11.6324 5.28397 11.6324 5.69071Z" fill="white"/>
<path fill-rule="evenodd" clip-rule="evenodd" d="M34.3957 6.15942H30.9143V6.42723H34.3957V6.15942ZM35.8687 6.69498H30.9144V6.96279H35.8687V6.69498Z" fill="white"/>
<path fill-rule="evenodd" clip-rule="evenodd" d="M17.3901 6.42725H20.8716V6.69505H17.3901V6.42725ZM15.9172 6.96296H20.8716V7.23076H15.9172V6.96296Z" fill="white"/>
<path fill-rule="evenodd" clip-rule="evenodd" d="M25.2235 1.87451C25.2904 2.2539 25.344 3.11979 25.0226 3.54828C25.0673 3.43669 25.1297 3.1064 25.0226 2.67792C24.8887 2.81182 24.6611 3.17335 24.8218 3.54828L24.6879 3.88303C24.5446 3.63754 24.3575 3.03945 24.7548 2.61097C25.0226 2.34317 25.2235 1.94146 25.2235 1.87451ZM27.7006 7.16358C27.6471 5.55676 26.25 3.63751 25.5582 2.87874C25.4511 2.66449 25.5136 2.2985 25.5582 2.14228L26.0269 2.47703V2.14228L26.2277 2.47703V2.27618L26.4286 2.61093C26.6428 2.50381 26.6964 2.1646 26.6964 2.00838C26.9642 2.27618 26.8972 2.61093 26.8303 2.74484C27.0981 2.74484 27.3436 2.34313 27.4328 2.14228C27.4864 2.73145 27.1427 3.05727 26.9642 3.14654C27.1784 3.4679 27.4105 3.45898 27.4998 3.41434C27.4998 3.68214 27.3213 3.70446 27.232 3.68214C27.3391 3.78927 27.5891 3.86068 27.7006 3.883C27.6471 3.99012 27.2766 3.97226 27.0981 3.94995C27.7408 4.48555 28.0354 4.17312 28.1023 3.94995C28.1023 4.32487 27.8792 4.46323 27.7676 4.48555C28.0131 4.64177 28.4237 4.95421 28.1023 4.95421C27.7006 4.95421 27.3659 5.02116 27.4998 5.22201C27.9818 5.59693 28.5487 5.19969 28.7719 4.95421C28.7719 5.32913 28.5041 5.55676 28.3701 5.62371C28.9058 5.94508 29.0397 6.20395 29.0397 6.29322C28.7049 5.95847 28.3032 5.89151 28.3701 5.95847C29.4049 6.65475 29.1584 7.27516 28.9058 7.49833C29.0129 7.01629 28.8611 6.71724 28.7719 6.62797C28.879 6.94933 28.638 7.11894 28.5041 7.16358C28.5041 6.68153 28.2362 6.65029 28.1023 6.69492C27.9417 7.71257 28.4817 8.50259 28.7719 8.77039C28.2898 9.03819 27.9908 8.65881 27.9015 8.43564L28.1023 8.97124C27.8881 9.13193 27.6114 8.81503 27.4998 8.63649C27.5667 8.41332 27.7006 7.8063 27.7006 7.16358ZM25.4913 3.1466C26.1831 3.97232 27.5534 5.98531 27.4998 7.43144C27.4462 8.87757 26.4509 10.2211 25.9599 10.712C26.4063 10.0425 27.0847 8.28841 26.2277 6.62803L27.0311 7.43144C26.8972 6.51645 26.4018 4.37849 25.4913 3.1466ZM24.8218 8.1679C25.0673 8.50266 25.5448 9.31945 25.4913 9.90862L23.8175 8.30181C24.063 8.36669 24.6477 8.61821 25.0226 9.10521C25.0449 9.01595 25.036 8.70351 24.8218 8.1679ZM24.8887 6.02554C26.0135 5.00789 25.402 4.12861 24.9557 3.81617L24.8887 3.95007C25.3708 4.37856 25.0896 5.51225 24.8887 6.02554ZM24.8887 6.29331C24.7995 6.40489 24.6209 6.68162 24.6209 6.89586C24.6209 6.93659 24.6256 6.99435 24.6311 7.06302L24.6311 7.06303C24.6619 7.4459 24.7199 8.16792 24.1523 8.16792C23.6167 8.16792 23.0141 7.49842 23.0141 7.29757C23.0141 7.187 23.0547 7.03584 23.0912 6.89996C23.1209 6.78901 23.148 6.68825 23.148 6.62806C23.148 6.61546 23.1486 6.59455 23.1494 6.56651C23.157 6.29665 23.1834 5.36623 22.8802 4.82039C22.7731 4.60615 22.8356 4.01699 22.8802 3.74918L22.3446 3.14663C22.3 2.94578 22.2107 2.5039 22.2107 2.34322C22.2107 2.18254 22.9248 2.81187 23.2819 3.14663L23.148 3.61528L23.0141 4.41869C23.148 4.86503 23.4024 5.8916 23.3489 6.42721C23.3489 6.58789 23.3042 7.0744 23.2819 7.29757C23.3656 7.54305 23.6434 7.99385 24.0853 7.83317C24.4863 7.68737 24.4462 7.32989 24.4198 7.09366C24.4098 7.00447 24.4017 6.93256 24.4201 6.89586C24.4736 6.78874 24.7548 6.44952 24.8887 6.29331ZM23.4828 7.02967C23.6836 6.85113 24.0585 6.68152 23.9514 7.43137C23.9291 7.27515 23.8041 6.97611 23.4828 7.02967ZM24.6879 2.47705C24.487 2.63327 24.1121 3.06621 24.2192 3.54826C24.3182 3.99376 24.4172 4.10988 24.4892 4.19426C24.5145 4.22401 24.5365 4.24981 24.554 4.28472C24.6075 4.39184 24.3531 4.77569 24.2192 4.95422C24.1746 4.93191 24.0853 4.83371 24.0853 4.61947L24.3531 4.35167C24.1746 4.30703 23.8175 4.12403 23.8175 3.74911C23.7952 4.06155 23.8175 4.79354 24.0853 5.22202C23.8175 4.93191 23.2953 4.15081 23.3489 3.34741C23.3489 3.13317 23.4828 2.99034 23.5497 2.9457L23.215 2.544C23.3265 2.45473 23.6033 2.35654 23.8175 2.6779C23.9737 2.544 24.3665 2.31637 24.6879 2.47705Z" fill="white"/>
<path d="M17.6133 21.6215V21.8259H16.6292V20.5136H17.5871V20.718H16.8729V21.0591H17.5065V21.2597H16.8729V21.6215H17.6133Z" fill="white"/>
<path d="M19.2648 21.9571C19.2211 22.0083 19.1699 22.0471 19.1111 22.0733C19.0536 22.0995 18.9905 22.1127 18.9218 22.1127C18.8318 22.1127 18.7493 22.092 18.6743 22.0508C18.5994 22.0108 18.5138 21.9408 18.4175 21.8408C18.2963 21.8309 18.1876 21.7959 18.0913 21.7359C17.9951 21.6746 17.9201 21.5953 17.8664 21.4978C17.8126 21.3991 17.7858 21.2897 17.7858 21.1697C17.7858 21.0423 17.8164 20.9273 17.8776 20.8248C17.9389 20.7211 18.0232 20.6405 18.1307 20.583C18.2382 20.5242 18.3588 20.4949 18.4925 20.4949C18.6262 20.4949 18.7468 20.5242 18.8543 20.583C18.9618 20.6405 19.0461 20.7205 19.1074 20.8229C19.1686 20.9254 19.1992 21.041 19.1992 21.1697C19.1992 21.2735 19.1786 21.3697 19.1374 21.4584C19.0961 21.5459 19.0386 21.6209 18.9649 21.6834C18.8912 21.7446 18.8056 21.789 18.7081 21.8165C18.7443 21.8552 18.7799 21.8833 18.8149 21.9008C18.8499 21.9183 18.8874 21.9271 18.9274 21.9271C19.0136 21.9271 19.0886 21.8921 19.1524 21.8221L19.2648 21.9571ZM18.0313 21.1697C18.0313 21.2572 18.0513 21.3366 18.0913 21.4078C18.1313 21.4778 18.1863 21.5328 18.2563 21.5728C18.3263 21.6115 18.405 21.6309 18.4925 21.6309C18.58 21.6309 18.6587 21.6115 18.7287 21.5728C18.7987 21.5328 18.8537 21.4778 18.8937 21.4078C18.9337 21.3366 18.9537 21.2572 18.9537 21.1697C18.9537 21.0823 18.9337 21.0035 18.8937 20.9335C18.8537 20.8623 18.7987 20.8073 18.7287 20.7686C18.6587 20.7286 18.58 20.7086 18.4925 20.7086C18.405 20.7086 18.3263 20.7286 18.2563 20.7686C18.1863 20.8073 18.1313 20.8623 18.0913 20.9335C18.0513 21.0035 18.0313 21.0823 18.0313 21.1697Z" fill="white"/>
<path d="M20.0218 21.8446C19.8406 21.8446 19.6994 21.794 19.5981 21.6928C19.4969 21.5903 19.4463 21.4441 19.4463 21.2541V20.5136H19.69V21.2447C19.69 21.5022 19.8012 21.6309 20.0237 21.6309C20.2449 21.6309 20.3555 21.5022 20.3555 21.2447V20.5136H20.5954V21.2541C20.5954 21.4441 20.5448 21.5903 20.4436 21.6928C20.3436 21.794 20.203 21.8446 20.0218 21.8446Z" fill="white"/>
<path d="M21.9209 21.6215V21.8259H20.9367V20.5136H21.8947V20.718H21.1804V21.0591H21.8141V21.2597H21.1804V21.6215H21.9209Z" fill="white"/>
<path d="M22.5994 21.8446C22.4982 21.8446 22.4 21.8302 22.3051 21.8015C22.2113 21.7727 22.137 21.7346 22.082 21.6871L22.1663 21.4978C22.2201 21.5403 22.2857 21.5753 22.3632 21.6028C22.4419 21.629 22.5206 21.6421 22.5994 21.6421C22.6969 21.6421 22.7693 21.6265 22.8168 21.5953C22.8656 21.564 22.8899 21.5228 22.8899 21.4715C22.8899 21.4341 22.8762 21.4034 22.8487 21.3797C22.8225 21.3547 22.7887 21.3353 22.7475 21.3216C22.7062 21.3078 22.65 21.2922 22.5788 21.2747C22.4788 21.251 22.3975 21.2272 22.3351 21.2035C22.2738 21.1797 22.2207 21.1429 22.1757 21.0929C22.132 21.0416 22.1101 20.9729 22.1101 20.8867C22.1101 20.8142 22.1295 20.7486 22.1682 20.6898C22.2082 20.6298 22.2676 20.5824 22.3463 20.5474C22.4263 20.5124 22.5238 20.4949 22.6387 20.4949C22.7187 20.4949 22.7975 20.5049 22.875 20.5249C22.9524 20.5449 23.0193 20.5736 23.0755 20.6111L22.9987 20.8004C22.9412 20.7667 22.8812 20.7411 22.8187 20.7236C22.7562 20.7061 22.6956 20.6973 22.6369 20.6973C22.5406 20.6973 22.4688 20.7136 22.4213 20.7461C22.3751 20.7786 22.3519 20.8217 22.3519 20.8754C22.3519 20.9129 22.3651 20.9435 22.3913 20.9673C22.4188 20.991 22.4532 21.0098 22.4944 21.0235C22.5356 21.0373 22.5919 21.0529 22.6631 21.0704C22.7606 21.0929 22.8406 21.1166 22.9031 21.1416C22.9656 21.1654 23.0187 21.2022 23.0624 21.2522C23.1074 21.3022 23.1299 21.3697 23.1299 21.4547C23.1299 21.5272 23.1099 21.5928 23.0699 21.6515C23.0312 21.7103 22.9718 21.7571 22.8918 21.7921C22.8118 21.8271 22.7144 21.8446 22.5994 21.8446Z" fill="white"/>
<path d="M23.6194 20.7198H23.1845V20.5136H24.298V20.7198H23.8631V21.8259H23.6194V20.7198Z" fill="white"/>
<path d="M25.3395 21.8259L25.0714 21.4416C25.0602 21.4428 25.0433 21.4434 25.0208 21.4434H24.7246V21.8259H24.4809V20.5136H25.0208C25.1346 20.5136 25.2333 20.5324 25.317 20.5699C25.402 20.6074 25.467 20.6611 25.512 20.7311C25.557 20.8011 25.5795 20.8842 25.5795 20.9804C25.5795 21.0791 25.5551 21.1641 25.5064 21.2353C25.4589 21.3066 25.3901 21.3597 25.3001 21.3947L25.602 21.8259H25.3395ZM25.3339 20.9804C25.3339 20.8967 25.3064 20.8323 25.2514 20.7873C25.1964 20.7423 25.1158 20.7198 25.0096 20.7198H24.7246V21.2428H25.0096C25.1158 21.2428 25.1964 21.2204 25.2514 21.1754C25.3064 21.1291 25.3339 21.0641 25.3339 20.9804Z" fill="white"/>
<path d="M25.8521 20.5136H26.0958V21.8259H25.8521V20.5136Z" fill="white"/>
<path d="M27.3018 21.5222H26.6457L26.5164 21.8259H26.2652L26.8557 20.5136H27.0956L27.688 21.8259H27.4331L27.3018 21.5222ZM27.2212 21.331L26.9738 20.7573L26.7282 21.331H27.2212Z" fill="white"/>
<path d="M29.0209 20.5136V21.8259H28.8203L28.0967 20.9373V21.8259H27.8549V20.5136H28.0555L28.7791 21.4022V20.5136H29.0209Z" fill="white"/>
<path d="M30.4305 20.5136C30.5442 20.5136 30.6429 20.5324 30.7267 20.5699C30.8117 20.6074 30.8767 20.6611 30.9216 20.7311C30.9666 20.8011 30.9891 20.8842 30.9891 20.9804C30.9891 21.0754 30.9666 21.1585 30.9216 21.2297C30.8767 21.2997 30.8117 21.3534 30.7267 21.3909C30.6429 21.4284 30.5442 21.4472 30.4305 21.4472H30.1343V21.8259H29.8906V20.5136H30.4305ZM30.4192 21.241C30.5255 21.241 30.6061 21.2185 30.6611 21.1735C30.7161 21.1285 30.7436 21.0641 30.7436 20.9804C30.7436 20.8967 30.7161 20.8323 30.6611 20.7873C30.6061 20.7423 30.5255 20.7198 30.4192 20.7198H30.1343V21.241H30.4192Z" fill="white"/>
<path d="M32.0177 21.5222H31.3615L31.2322 21.8259H30.981L31.5715 20.5136H31.8115L32.4038 21.8259H32.1489L32.0177 21.5222ZM31.9371 21.331L31.6896 20.7573L31.444 21.331H31.9371Z" fill="white"/>
<path d="M33.4293 21.8259L33.1612 21.4416C33.15 21.4428 33.1331 21.4434 33.1106 21.4434H32.8144V21.8259H32.5707V20.5136H33.1106C33.2243 20.5136 33.3231 20.5324 33.4068 20.5699C33.4918 20.6074 33.5568 20.6611 33.6018 20.7311C33.6468 20.8011 33.6692 20.8842 33.6692 20.9804C33.6692 21.0791 33.6449 21.1641 33.5961 21.2353C33.5486 21.3066 33.4799 21.3597 33.3899 21.3947L33.6917 21.8259H33.4293ZM33.4237 20.9804C33.4237 20.8967 33.3962 20.8323 33.3412 20.7873C33.2862 20.7423 33.2056 20.7198 33.0994 20.7198H32.8144V21.2428H33.0994C33.2056 21.2428 33.2862 21.2204 33.3412 21.1754C33.3962 21.1291 33.4237 21.0641 33.4237 20.9804Z" fill="white"/>
<path d="M34.3937 21.2766L34.1856 21.4903V21.8259H33.9419V20.5136H34.1856V21.1866L34.8342 20.5136H35.1079L34.5568 21.1004L35.1417 21.8259H34.8567L34.3937 21.2766Z" fill="white"/>
<path d="M37.1149 20.0877L36.8988 19.8034C36.4832 20.0307 36.1233 20.2903 35.7294 20.4246C34.7719 20.7509 33.5111 20.1833 33.7147 18.6647C33.8319 17.7874 34.0239 16.9206 34.1785 16.0486C34.196 15.9521 34.1935 15.8521 34.2059 15.6661C33.7031 16.0346 33.5078 16.5224 33.4031 17.0364C33.1255 18.3892 32.8786 19.749 32.6268 21.108C32.5769 21.3712 32.4905 21.5466 32.1747 21.4326C32.4888 19.7999 32.7747 18.1866 33.1197 16.5838C33.2501 15.9767 33.5036 15.3915 34.1586 15.1801C33.9516 14.8108 33.689 14.7748 33.423 15.1318C33.2113 15.3989 33.0553 15.7101 32.9651 16.0451C32.6866 17.2733 32.4489 18.52 32.2121 19.7631C32.0999 20.3491 32.0891 20.3772 31.5264 20.3772C31.4433 20.3772 31.3602 20.3772 31.2771 20.3772C30.6471 20.3693 30.0561 20.3772 29.4677 20.7737C28.7654 21.2457 27.936 21.3291 27.1156 21.0474C26.9534 20.9816 26.8089 20.8747 26.6951 20.736C27.9601 21.079 29.0588 20.7895 30.0088 19.8868C30.1442 19.7578 30.2207 19.5596 30.2889 19.3692C28.1861 20.7211 27.4913 20.836 26.1283 20.0131C25.8199 20.7746 25.1949 21.072 24.4826 21.1878C24.2852 21.2194 24.0834 21.2008 23.8941 21.1337C23.7047 21.0666 23.5333 20.9528 23.3939 20.8018C24.161 20.9615 24.865 20.8808 25.4376 20.286C25.6204 20.0956 25.7609 19.8596 25.9213 19.6446L25.7966 19.528C25.7061 19.6157 25.6138 19.699 25.5257 19.7912C24.9531 20.3667 24.3231 20.6685 23.5003 20.4263C22.6267 20.1737 22.3849 19.3736 22.4796 18.6717C22.5785 17.9383 22.7514 17.2163 22.8861 16.4881C22.9235 16.2837 22.9401 16.0741 22.9825 15.7424C22.4397 16.139 22.276 16.6197 22.1688 17.1251C21.9444 18.1778 21.7424 19.2306 21.5363 20.2833C21.4773 20.5825 21.4382 20.8869 21.3826 21.1869C21.3368 21.4335 21.2163 21.5379 20.9429 21.4159C21.2554 19.8368 21.543 18.2682 21.887 16.7119C22.0242 16.0898 22.2428 15.4643 23.034 15.245C22.901 15.095 22.8013 14.9011 22.7232 14.9108C22.5337 14.9327 22.2835 14.9985 22.1863 15.1397C21.9698 15.4411 21.8096 15.7832 21.7142 16.1477C21.4457 17.3374 21.2155 18.5384 20.9936 19.7385C20.8756 20.3702 20.8889 20.3772 20.2863 20.3781C20.1342 20.3781 19.9813 20.3842 19.8292 20.3781C19.535 20.364 19.3039 20.3947 19.0812 20.6904C18.7221 21.1738 17.635 21.3194 17.1197 21.0264C17.0674 20.9966 17.0366 20.915 17.005 20.8632C17.3915 20.829 17.7771 20.8474 18.1329 20.7483C18.4653 20.6562 18.8809 20.5728 18.9083 19.9912C18.1029 20.4851 17.32 20.8009 16.4673 20.1228C15.9894 20.7799 15.3661 21.1913 14.579 21.1913C14.2748 21.1913 13.9706 21.0159 13.5858 20.8948C14.2025 20.8071 14.7244 20.8071 15.1965 20.6492C15.4313 20.5672 15.6452 20.4297 15.8221 20.2473C15.999 20.0649 16.1341 19.8423 16.2171 19.5964L16.134 19.5087C15.9545 19.6727 15.7791 19.842 15.5955 20.0008C14.6264 20.8351 13.3182 20.6386 12.8245 19.5903C12.6018 19.1174 12.5344 18.52 12.5419 17.9813C12.5502 17.4111 12.7314 16.8408 12.8419 16.2486C12.5926 16.2206 12.2485 16.4548 11.9767 16.0188C12.4754 15.9486 12.9076 15.8232 13.0007 15.1547C12.64 15.5986 12.2527 15.7468 11.7615 15.6977C11.3817 15.66 10.9985 16.0425 10.9212 16.4408C10.617 18.0111 10.3178 19.5824 9.99701 21.1483C9.96793 21.2913 9.79671 21.401 9.69199 21.5264L9.56234 21.4387C9.6654 20.8597 9.76513 20.2789 9.87318 19.7008C10.0793 18.6015 10.2946 17.5076 10.4998 16.4039C10.6104 15.8109 11.0692 15.5389 11.4648 15.1994C11.3725 14.7871 11.2911 14.7862 10.9611 14.9687C10.4217 15.2669 10.3544 15.7749 10.2621 16.3206C10.0959 17.2953 9.88232 18.2612 9.68701 19.2297C9.67537 19.2867 9.64379 19.3385 9.63132 19.3946C9.40442 20.3807 9.40442 20.3807 8.42869 20.3807H7.55601V19.6525C6.94347 20.7851 6.13396 21.4282 4.93881 21.315C4.69778 21.2922 4.4659 21.151 4.24814 20.9869C5.09422 21.1799 5.82728 20.9781 6.46059 20.4097C6.9639 19.9523 7.2992 19.3229 7.40807 18.6314C7.0324 19.3508 6.64676 20.0482 5.88961 20.4044C5.14742 20.7553 4.42517 20.7553 3.72869 20.293C3.58241 20.7097 3.45193 21.0913 3.30648 21.465C3.299 21.4843 3.1602 21.4475 3.06961 21.4352C3.23584 20.5123 3.39126 19.6122 3.56828 18.7156C3.73035 17.8901 3.90073 17.0663 4.09937 16.2495C4.13428 16.103 4.28139 15.9074 4.40689 15.8784C4.73934 15.8012 5.08259 15.8039 5.42252 15.774L5.43665 15.9302C5.22056 15.9793 5.00613 16.0355 4.78837 16.0758C4.52906 16.1241 4.43681 16.2943 4.39359 16.5566C4.29219 17.1707 4.16004 17.7848 4.04202 18.3989C3.99631 18.6393 3.88993 18.9349 4.19163 19.0411C4.44285 19.1243 4.70929 19.143 4.96873 19.0955C5.1175 19.0683 5.28455 18.8875 5.36185 18.7305C5.804 17.8322 5.98353 16.8882 5.64692 15.9047C5.46241 15.3652 4.72604 15.052 4.25396 15.2994C4.17833 15.3389 4.1268 15.4749 4.10602 15.5775C3.79684 17.025 3.49099 18.4735 3.2109 19.928C3.15106 20.2351 3.06213 20.3982 2.7355 20.3842C2.22768 20.3623 1.71738 20.3781 1.12479 20.3781L2.6981 12.7017C1.90521 13.5431 1.76309 14.5537 2.04567 15.7723L1.05663 15.5626L1.07159 15.4135L1.59437 15.3801C1.41319 14.1905 1.57941 13.1123 2.42134 12.2385C3.26326 11.3647 4.28222 11.1779 5.40922 11.3086L5.41338 11.1472C5.12913 11.0928 4.84738 11.0024 4.56148 10.991C2.63244 10.9121 0.987651 12.5219 1.43313 14.73C1.50544 15.081 1.40903 15.195 1.07409 15.1327C0.249614 14.9801 -0.135195 14.337 0.0426649 13.465C0.351011 11.9595 1.37246 11.1507 2.61914 10.6269C3.55499 10.2313 4.54236 10.0462 5.57877 10.2953C6.41903 10.4971 7.0083 10.9217 7.40724 11.7534C7.7721 12.514 7.98902 13.2334 7.61086 14.0405C7.55019 14.1712 7.50863 14.3291 7.41139 14.4204C7.09307 14.7213 7.12715 14.9564 7.36069 15.3389C7.72057 15.9293 8.08045 16.5566 8.0846 17.3268C8.30651 16.2355 8.55086 15.1485 8.73703 14.0501C8.80352 13.6562 8.9498 13.5238 9.30469 13.5474C9.60805 13.5676 9.9139 13.5474 10.2189 13.5474C10.8007 13.5474 10.8007 13.5474 10.7342 14.1352C12.4172 13.2667 12.8785 13.415 13.4046 15.0397C14.2956 13.8212 15.3453 13.0772 16.9011 13.7536C17.1638 13.4027 17.5877 13.5615 17.9683 13.5589C19.3039 13.5483 18.9507 13.4632 18.7612 14.652C18.5667 15.8714 18.275 17.0733 18.0373 18.2857C18.0032 18.4612 18.0323 18.6463 18.0323 18.8279L18.1345 18.8402C18.2176 18.4691 18.3082 18.0997 18.3839 17.7269C18.5833 16.7741 18.7695 15.8179 18.9848 14.8687C19.013 14.7432 19.1776 14.652 19.2798 14.5449C19.3056 14.6862 19.3754 14.8371 19.3505 14.9678C19.1202 16.1521 18.8726 17.3365 18.6332 18.5147C18.6025 18.6665 18.595 18.8226 18.57 19.0358C19.0355 18.9104 19.2025 18.5542 19.2831 18.2059C19.5383 17.1031 19.7461 15.9881 19.9705 14.8774C20.0361 14.5511 20.0636 14.2116 20.1716 13.9028C20.2074 13.8198 20.2607 13.7465 20.3273 13.6886C20.394 13.6307 20.4724 13.5896 20.5564 13.5685C20.9711 13.5287 21.3882 13.5269 21.8031 13.5632C21.9544 13.5746 22.0973 13.7089 22.3234 13.8264C22.5644 13.7492 22.9343 13.5729 23.3207 13.5202C23.9516 13.4325 24.3954 13.7264 24.8417 14.2572C25.7343 15.3196 25.3935 16.425 25.1675 17.5567C25.0744 18.0225 24.9597 18.484 24.85 18.9674C25.3429 18.8858 25.598 18.548 25.6096 18.0208C25.6279 16.9055 25.9559 15.8205 26.553 14.9002C27.0367 14.1519 27.6891 13.6466 28.5477 13.4571C29.5683 13.2325 30.1841 13.5606 30.7086 14.7309C30.8405 15.0478 30.8912 15.3957 30.8557 15.7398C30.7909 16.3837 30.2914 16.6127 29.6414 16.246C30.1758 16.1381 30.5207 15.8951 30.5083 15.2968C30.2681 15.6477 29.9855 15.9012 29.5874 15.717C29.4436 15.6503 29.3622 15.4328 29.2134 15.231C29.1045 15.4012 28.9574 15.5986 28.8444 15.8153C28.3648 16.739 28.157 17.7453 28.0681 18.7831C28.0423 19.0841 28.1471 19.1955 28.4413 19.1928C29.4062 19.1814 30.1235 18.684 30.5656 17.8427C30.8025 17.3918 30.815 16.8092 30.9263 16.2846C31.1973 14.9774 31.4657 13.6697 31.7317 12.3613C31.7865 12.0903 31.8281 11.8157 31.8597 11.5411C31.8913 11.2665 32.0259 11.1314 32.2852 11.0963C32.7099 11.0401 33.1321 10.9647 33.5552 10.8945C33.8968 10.8384 33.989 10.9401 33.9126 11.2989C33.7463 12.0938 33.5693 12.8868 33.4006 13.6817C33.3935 13.7517 33.3935 13.8222 33.4006 13.8922L33.5161 13.9317C33.5992 13.6808 33.6931 13.4343 33.7505 13.1781C33.8494 12.7395 33.9092 12.2903 34.0198 11.856C34.048 11.7437 34.2043 11.6674 34.3023 11.5744C34.3389 11.6955 34.4245 11.8262 34.4046 11.9359C34.3115 12.4491 34.1893 12.957 34.0613 13.5422C34.2359 13.5281 34.3755 13.5132 34.5159 13.5062C35.1434 13.4764 35.6903 13.6001 36.0336 14.251C36.1898 14.5476 36.489 14.7651 36.6203 15.0687C36.9362 15.7968 36.676 16.5329 36.5372 17.2558C36.4317 17.8058 36.2879 18.3471 36.1574 18.8919L36.3078 18.9797C36.391 18.8516 36.5431 18.7305 36.5572 18.5936C36.6112 18.098 36.8439 17.7462 37.1764 17.4014C37.4207 17.1479 37.5861 16.7873 37.7216 16.4416C38.0648 15.5687 38.3782 14.6871 38.689 13.7966C38.7796 13.5387 38.8943 13.3913 39.181 13.3694C39.5807 13.3313 39.9775 13.2647 40.3687 13.1702C40.7169 13.0921 40.8408 13.222 40.8599 13.5896C40.9339 15.0766 41.0261 16.5627 41.1151 18.048C41.1166 18.0917 41.1262 18.1346 41.1435 18.1743C41.1607 18.2141 41.1853 18.2498 41.2156 18.2796C41.2156 17.6962 41.2389 17.111 41.2098 16.5294C41.1691 15.7144 41.0793 14.902 41.0336 14.087C41.0261 13.9589 41.14 13.8238 41.1998 13.6922C41.2755 13.8255 41.4076 13.9554 41.4184 14.0922C41.5107 15.2713 41.5846 16.4522 41.6594 17.6321C41.6618 17.6788 41.6751 17.724 41.6981 17.7639C41.7212 17.8037 41.7533 17.8368 41.7916 17.8602L42.4831 14.4704C42.3435 14.244 42.2047 14.1115 42.1789 13.9571C42.1357 13.7001 42.3318 13.629 42.5271 13.5106C42.6842 13.415 42.7432 13.1079 42.8064 12.8825C42.8895 12.5912 42.9128 12.2815 42.9976 11.992C43.018 11.929 43.0514 11.8716 43.0954 11.8238C43.1394 11.776 43.1928 11.7391 43.2519 11.7157C43.7505 11.6095 44.2575 11.5253 44.7637 11.4604C45.0903 11.4182 45.033 11.6867 44.9972 11.878C44.8967 12.4149 44.7753 12.9474 44.6648 13.4808L44.7612 13.5115C44.8439 13.2697 44.9144 13.0234 44.9723 12.7737C45.0213 12.5105 44.9665 12.1903 45.4394 12.2183C45.4153 12.4289 45.3812 12.6228 45.3737 12.8175C45.3535 13.0956 45.3552 13.375 45.3787 13.6527C45.4145 13.9466 45.2416 14.2581 44.9632 14.2949C44.8145 14.3033 44.6655 14.3033 44.5168 14.2949L43.6109 18.7507L43.7622 18.7875C43.8952 18.1728 44.0284 17.5587 44.1619 16.9452C44.2766 16.4188 44.3897 15.8925 44.5119 15.374C44.5626 15.1573 44.6457 14.9704 44.9274 15.1625L44.1495 18.9454C44.2563 18.9505 44.3629 18.9328 44.4631 18.8934C44.5633 18.854 44.6549 18.7937 44.7325 18.716C44.81 18.6384 44.872 18.545 44.9146 18.4416C44.9573 18.3381 44.9797 18.2266 44.9806 18.1138C45.023 16.7294 45.4153 15.4819 46.2996 14.4353C46.8747 13.7545 47.6169 13.4334 48.4672 13.4176C49.1794 13.4044 49.7138 13.7247 50.0072 14.4467C50.0903 14.6555 50.2109 14.8485 50.3588 15.1345C50.5466 14.8958 50.668 14.6844 50.84 14.5414C50.9722 14.4326 51.1725 14.4098 51.3387 14.3493C51.3304 14.5055 51.3736 14.7002 51.303 14.8125C51.0586 15.2134 50.8101 15.6249 50.4951 15.9609C50.2615 16.2041 50.118 16.5273 50.0903 16.8724C49.954 17.9795 49.58 18.9683 48.7772 19.7578C47.9153 20.6062 46.4816 20.7448 45.5183 19.9333C45.0945 20.7693 44.3589 21.0738 43.5336 21.1948C43.3662 21.2171 43.1962 21.1955 43.0386 21.1318C42.881 21.0682 42.7407 20.9645 42.6302 20.8299C43.6325 21.0053 44.442 20.6878 45.0754 19.8763C45.1599 19.7635 45.2083 19.6252 45.2133 19.4815C44.6964 19.9447 44.1686 20.3333 43.507 20.4895C42.8903 20.6351 42.2329 20.3526 41.8182 19.6903C41.427 19.9827 41.0358 20.2725 40.6446 20.5597C39.8135 21.1738 38.9176 21.365 37.9443 21.0167C37.8105 20.9685 37.695 20.8527 37.5736 20.7009C39.27 21.3527 40.3887 20.2333 41.5688 19.3209C41.6403 19.2657 41.6445 19.1121 41.5988 18.9463C41.2464 19.1893 40.8699 19.4008 40.5466 19.6815C39.4728 20.6123 38.3374 20.7904 37.1032 20.0754L37.1149 20.0877ZM16.6501 15.2003C16.2005 15.1827 15.9611 15.4564 15.7725 15.7503C15.209 16.6276 14.9763 17.6199 14.9189 18.6665C14.9006 18.9981 15.0544 19.092 15.3345 18.9797C15.7874 18.7954 16.0118 18.4077 16.1216 17.9348C16.2163 17.526 16.2994 17.1145 16.3792 16.7066C16.4706 16.2118 16.5562 15.7188 16.6501 15.2003ZM48.6849 15.1599C48.5652 15.2696 48.4223 15.3617 48.3309 15.4924C47.641 16.4785 47.3983 17.6181 47.3576 18.8156C47.3576 18.8946 47.5571 19.063 47.6369 19.0463C47.8031 19.013 48.0059 18.92 48.084 18.7831C48.33 18.3508 48.5434 17.8988 48.7223 17.4312C48.8329 17.1391 48.9933 16.7224 48.8802 16.511C48.7651 16.3104 48.6886 16.0878 48.655 15.856C48.6215 15.6241 48.6317 15.3876 48.6849 15.1599ZM4.83242 14.2563C4.8888 14.258 4.94504 14.2494 4.99865 14.2309C5.65856 13.8001 5.9802 13.1474 6.06747 12.3587C6.11152 11.9683 5.92036 11.7104 5.55633 11.6402C5.31706 11.6079 5.07613 11.5912 4.83491 11.5902C4.7917 11.8411 4.75762 12.0288 4.72853 12.2113C4.69944 12.3938 4.677 12.5754 4.65124 12.7579C4.79585 12.2692 4.79585 12.2692 5.21557 12.2508L4.83242 14.2563ZM29.4054 14.5818C29.2766 14.2458 29.1161 14.2414 28.8876 14.4326C28.3964 14.8432 28.1961 15.431 27.9991 16.0205C27.655 17.0505 27.547 18.0164 27.6958 18.663C27.8678 16.4785 28.5634 14.9616 29.4054 14.5818ZM38.9541 16.8373C38.7655 17.2435 38.5934 17.6102 38.428 17.9778C38.4073 18.0243 38.3965 18.1138 38.4214 18.141C38.7131 18.4515 38.6283 18.7954 38.4721 19.1613C39.1096 18.927 39.3315 17.8471 38.9541 16.8373ZM36.2721 15.0397C36.0568 16.0767 35.8366 17.1452 35.6122 18.2059C35.5632 18.4384 35.4734 18.6717 35.7227 18.8525C35.8665 18.2892 36.0485 17.7629 36.1275 17.2207C36.2372 16.489 36.5696 15.7617 36.2721 15.0397ZM16.7158 14.7169C16.3568 14.3958 16.0384 14.4344 15.7874 14.6844C15.538 14.9309 15.333 15.2231 15.1824 15.5468C14.9646 16.0302 14.82 16.5513 14.6446 17.0566C15.2206 15.4696 15.529 15.088 16.7158 14.7169ZM25.0171 15.1827C24.9697 15.4371 24.9389 15.6345 24.8965 15.8293C24.7303 16.6189 24.5483 17.4146 24.3879 18.2103C24.3538 18.3796 24.3829 18.5612 24.3829 18.741H24.4968C24.6314 17.5707 25.1833 16.4723 25.0171 15.1827ZM47.1748 16.918C47.6028 16.0477 47.6734 14.873 48.9201 14.7353C48.7182 14.3949 48.3591 14.3432 48.1073 14.6476C47.5712 15.2985 47.3368 16.096 47.1756 16.9206L47.1748 16.918ZM7.39726 13.2325L6.47472 14.5212C6.92685 14.5563 7.39726 13.8484 7.39726 13.2325ZM38.0657 17.4102L38.207 17.4733L38.9458 15.6214L38.8469 15.5775L38.0657 17.4102ZM37.493 18.734L37.4382 18.877C37.5919 18.9147 37.7706 19.0218 37.892 18.9709C38.0333 18.9112 38.123 18.7147 38.2352 18.577L38.1421 18.4971L37.493 18.734Z" fill="white"/>
<path d="M46.2415 20.717C46.8025 20.7547 47.2829 20.8626 47.7433 20.8047C48.749 20.6731 49.4122 19.9844 49.7912 19.0501C50.0463 18.4185 50.1419 17.7149 50.3231 17.0481C50.3699 16.8759 50.4462 16.7141 50.5483 16.5709C50.8301 16.1822 51.1301 15.8111 51.4235 15.4304C51.5008 15.3295 51.5498 15.1962 51.6446 15.1242C51.7044 15.0786 51.8324 15.0953 51.9105 15.1304C51.9463 15.1462 51.9704 15.3014 51.9396 15.3514C51.662 15.798 51.4227 16.2901 51.0678 16.6586C50.8035 16.9323 50.7104 17.206 50.6597 17.5578C50.5043 18.6431 50.1702 19.6449 49.3831 20.4196C48.6093 21.1811 47.6934 21.2627 46.7235 21.0214C46.5689 20.9784 46.4384 20.8433 46.2415 20.717Z" fill="white"/>
<path d="M37.1024 20.0757C37.2162 20.5143 36.9029 20.6801 36.6411 20.853C36.3759 21.0389 36.0712 21.1527 35.7542 21.1842C35.4372 21.2157 35.1177 21.164 34.8243 21.0337C34.7411 21.0003 34.6846 20.9126 34.5566 20.7968C34.67 20.7857 34.7841 20.7857 34.8974 20.7968C35.5731 20.9661 36.1441 20.7626 36.6644 20.2968C36.7849 20.1889 36.9627 20.1538 37.1148 20.0853L37.1024 20.0757Z" fill="white"/>
<path d="M45.8268 14.6568L45.4944 15.1998C45.4578 15.0568 45.373 14.9024 45.3996 14.7734C45.4212 14.6699 45.5775 14.598 45.6739 14.5103L45.8268 14.6568Z" fill="white"/>
</svg>
